<?xml version="1.0" encoding="UTF-8" standalone="no"?>
<!DOCTYPE svg PUBLIC "-//W3C//DTD SVG 1.1//EN" "http://www.w3.org/Graphics/SVG/1.1/DTD/svg11.dtd">
<svg xmlns="http://www.w3.org/2000/svg" version="1.1" viewBox="0.00 0.00 150.00 150.00">
<path fill="#ffffff" d="
  M 88.22 93.74
  C 84.41 107.52 70.02 105.76 57.93 105.42
  Q 57.50 105.41 57.49 104.97
  L 56.86 35.01
  A 2.12 2.12 0.0 0 1 60.81 33.93
  L 69.54 48.97
  A 0.36 0.36 0.0 0 0 70.19 48.92
  L 73.03 41.02
  A 1.95 1.95 0.0 0 1 76.70 41.01
  L 79.31 48.27
  A 0.34 0.34 0.0 0 0 79.92 48.32
  L 88.10 33.98
  A 2.22 2.22 0.0 0 1 92.25 35.08
  L 92.25 104.87
  Q 92.25 105.50 91.63 105.50
  L 89.35 105.50
  Q 88.69 105.50 88.70 104.84
  L 88.87 93.83
  A 0.33 0.33 0.0 0 0 88.22 93.74
  Z
  M 88.22 39.75
  L 81.08 52.07
  A 0.85 0.70 54.2 0 0 81.04 52.73
  L 86.70 68.33
  A 1.05 1.05 0.0 0 0 88.73 67.98
  L 88.80 39.90
  Q 88.80 38.74 88.22 39.75
  Z
  M 61.96 68.93
  A 0.84 0.84 0.0 0 0 62.98 68.41
  L 68.44 53.58
  Q 68.64 53.04 68.35 52.53
  L 61.28 40.19
  A 0.28 0.28 0.0 0 0 60.76 40.32
  Q 60.73 53.91 60.77 67.68
  Q 60.77 68.37 61.09 68.58
  Q 61.40 68.78 61.96 68.93
  Z
  M 75.10 43.80
  A 0.30 0.30 0.0 0 0 74.53 43.81
  L 71.66 51.98
  A 0.30 0.30 0.0 0 0 71.68 52.23
  L 74.34 57.11
  A 0.30 0.30 0.0 0 0 74.87 57.12
  L 77.85 51.77
  A 0.30 0.30 0.0 0 0 77.87 51.52
  L 75.10 43.80
  Z
  M 79.48 56.07
  A 0.30 0.30 0.0 0 0 78.94 56.02
  L 76.54 60.07
  A 0.30 0.30 0.0 0 0 76.50 60.22
  L 76.50 67.95
  A 0.30 0.30 0.0 0 0 76.80 68.25
  L 83.42 68.25
  A 0.30 0.30 0.0 0 0 83.71 67.85
  L 79.48 56.07
  Z
  M 70.07 56.55
  L 66.17 67.43
  A 0.62 0.61 10.0 0 0 66.75 68.25
  L 72.52 68.25
  Q 73.09 68.25 73.07 67.68
  Q 72.98 65.01 73.02 62.33
  C 73.07 59.85 71.88 58.53 70.78 56.50
  A 0.39 0.39 0.0 0 0 70.07 56.55
  Z
  M 63.60 102.99
  L 72.60 103.01
  A 0.38 0.38 0.0 0 0 72.99 102.63
  L 73.03 75.23
  A 1.48 0.75 -89.9 0 0 72.29 73.75
  L 64.03 73.73
  A 1.48 0.75 -89.9 0 0 63.27 75.21
  L 63.23 102.61
  A 0.38 0.38 0.0 0 0 63.60 102.99
  Z
  M 84.91 76.50
  C 86.21 78.31 87.25 79.86 88.34 82.76
  Q 88.53 83.26 88.68 82.75
  Q 88.96 81.80 88.74 81.24
  Q 87.38 77.80 86.03 74.27
  Q 85.82 73.75 85.26 73.75
  L 83.01 73.75
  Q 82.28 73.75 82.72 74.33
  C 83.34 75.16 84.36 75.72 84.91 76.50
  Z
  M 76.94 102.19
  C 89.35 98.18 89.67 78.14 77.17 74.49
  Q 76.51 74.30 76.51 74.98
  L 76.48 101.85
  A 0.36 0.35 81.1 0 0 76.94 102.19
  Z"
/>
</svg>
